HIERARCHY
ROOT SpineBase
{
  OFFSET 0.000000 0.000000 0.000000
  CHANNELS 6 Xposition Yposition Zposition Zrotation Xrotation Yrotation
  JOINT SpineMid
  {
    OFFSET -0.000000 31.717605 0.000000
    CHANNELS 3 Zrotation Xrotation Yrotation
    JOINT SpineShoulder
    {
      OFFSET 0.190213 23.638955 -0.820794
      CHANNELS 3 Zrotation Xrotation Yrotation
      JOINT Neck
      {
        OFFSET 0.162134 7.835075 -0.606329
        CHANNELS 3 Zrotation Xrotation Yrotation
        JOINT Head
        {
          OFFSET -5.548488 14.006204 -0.643839
          CHANNELS 3 Zrotation Xrotation Yrotation
          End Site
          {
            OFFSET 0 0 0
          }
        }
      }
      JOINT ShoulderLeft
      {
        OFFSET -17.341192 -6.268565 6.491143
        CHANNELS 3 Zrotation Xrotation Yrotation
        JOINT ElbowLeft
        {
          OFFSET -1.092241 -27.310974 1.161594
          CHANNELS 3 Zrotation Xrotation Yrotation
          JOINT WristLeft
          {
            OFFSET -0.101205 -22.799193 -0.876007
            CHANNELS 3 Zrotation Xrotation Yrotation
            JOINT HandLeft
            {
              OFFSET -0.334157 -8.152394 0.736661
              CHANNELS 3 Zrotation Xrotation Yrotation
              JOINT HandTipLeft
              {
                OFFSET -0.100754 -7.345196 1.017274
                CHANNELS 3 Zrotation Xrotation Yrotation
                End Site
                {
                  OFFSET 0 0 0
                }
              }
              JOINT ThumbLeft
              {
                OFFSET 4.520503 0.290597 -3.500222
                CHANNELS 3 Zrotation Xrotation Yrotation
                End Site
                {
                  OFFSET 0 0 0
                }
              }
            }
          }
        }
      }
      JOINT ShoulderRight
      {
        OFFSET 15.053781 -3.427733 -7.903290
        CHANNELS 3 Zrotation Xrotation Yrotation
        JOINT ElbowRight
        {
          OFFSET 6.012026 -26.362462 -3.692898
          CHANNELS 3 Zrotation Xrotation Yrotation
          JOINT WristRight
          {
            OFFSET -0.539806 -25.253879 -6.216022
            CHANNELS 3 Zrotation Xrotation Yrotation
            JOINT HandRight
            {
              OFFSET 0.854413 -7.026001 1.096709
              CHANNELS 3 Zrotation Xrotation Yrotation
              JOINT HandTipRight
              {
                OFFSET -0.136776 -8.265704 -0.430731
                CHANNELS 3 Zrotation Xrotation Yrotation
                End Site
                {
                  OFFSET 0 0 0
                }
              }
              JOINT ThumbRight
              {
                OFFSET -2.966724 1.117426 -1.001913
                CHANNELS 3 Zrotation Xrotation Yrotation
                End Site
                {
                  OFFSET 0 0 0
                }
              }
            }
          }
        }
      }
    }
  }
  JOINT HipLeft
  {
    OFFSET -6.285116 -0.138768 -1.246270
    CHANNELS 3 Zrotation Xrotation Yrotation
    JOINT KneeLeft
    {
      OFFSET 1.847247 -33.933693 6.523094
      CHANNELS 3 Zrotation Xrotation Yrotation
      JOINT AnkleLeft
      {
        OFFSET 4.792449 -37.724546 11.085583
        CHANNELS 3 Zrotation Xrotation Yrotation
        JOINT FootLeft
        {
          OFFSET -1.621759 -8.046196 -5.782949
          CHANNELS 3 Zrotation Xrotation Yrotation
          End Site
          {
            OFFSET 0 0 0
          }
        }
      }
    }
  }
  JOINT HipRight
  {
    OFFSET 7.761239 2.117180 -6.025108
    CHANNELS 3 Zrotation Xrotation Yrotation
    JOINT KneeRight
    {
      OFFSET 9.328347 -34.186697 -1.043428
      CHANNELS 3 Zrotation Xrotation Yrotation
      JOINT AnkleRight
      {
        OFFSET 4.085839 -37.670554 5.426181
        CHANNELS 3 Zrotation Xrotation Yrotation
        JOINT FootRight
        {
          OFFSET -1.107137 -7.817615 -6.594713
          CHANNELS 3 Zrotation Xrotation Yrotation
          End Site
          {
            OFFSET 0 0 0
          }
        }
      }
    }
  }
}
MOTION
Frames: 14
Frame Time: 0.033333
-72.809602 81.440940 337.986717 0.000000 0.000000 18.789285 -0.000000 0.000000 -18.789285 -0.000000 0.000000 0.000000 -0.000000 0.000000 0.000000 0.000000 0.000000 0.000000 -0.000000 0.000000 0.000000 -0.000000 0.000000 0.000000 -0.000000 0.000000 0.000000 -0.000000 0.000000 0.000000 0.000000 0.000000 0.000000 0.000000 0.000000 0.000000 -0.000000 0.000000 0.000000 -0.000000 0.000000 0.000000 -0.000000 0.000000 0.000000 -0.000000 0.000000 0.000000 0.000000 0.000000 0.000000 0.000000 0.000000 0.000000 -0.000000 0.000000 -18.789285 -0.000000 0.000000 0.000000 -0.000000 0.000000 0.000000 0.000000 0.000000 0.000000 -0.000000 0.000000 -18.789285 -0.000000 0.000000 0.000000 -0.000000 0.000000 0.000000 0.000000 0.000000 0.000000
-71.992376 81.385622 337.509661 0.085625 -0.162077 20.357404 -0.023895 0.181741 -20.357245 -0.000000 0.000000 0.000000 0.392169 1.058058 0.433157 0.000000 0.000000 0.000000 -0.355954 -2.491550 0.076699 -0.301936 3.867618 -0.036231 1.499715 2.625490 -0.109282 1.755670 2.675421 0.360538 0.000000 0.000000 0.000000 0.000000 0.000000 0.000000 1.251671 -1.262022 -0.448948 -0.331452 -0.535484 0.282932 -3.827547 2.192845 -0.101038 3.726215 0.890908 0.346278 0.000000 0.000000 0.000000 0.000000 0.000000 0.000000 -0.389769 1.030509 -20.439798 -0.164116 -1.573368 -0.276424 0.834990 -2.770770 1.094589 0.000000 0.000000 0.000000 -0.966868 -0.363017 -20.566804 0.691565 0.841262 0.202990 -2.375235 5.213424 1.318703 0.000000 0.000000 0.000000
-71.213525 81.349221 337.021311 0.167214 -0.275848 21.557043 -0.054165 0.317992 -21.556490 -0.000000 0.000000 0.000000 0.669286 1.861293 0.756105 0.000000 0.000000 0.000000 -0.608249 -4.572590 0.132560 -0.656625 7.051730 -0.014241 3.071343 6.003009 -0.253345 2.744136 4.130963 0.696572 0.000000 0.000000 0.000000 0.000000 0.000000 0.000000 2.343342 -2.367480 -0.818402 -0.673338 -0.902578 0.553856 -7.116164 4.359531 0.038927 6.724126 1.358904 0.649695 0.000000 0.000000 0.000000 0.000000 0.000000 0.000000 -0.750261 1.955360 -21.714220 -0.143701 -2.769177 -0.464592 1.437666 -4.696761 1.895720 0.000000 0.000000 0.000000 -1.875403 -0.585086 -21.932324 1.352531 1.517714 0.353673 -4.248034 8.636116 2.507384 0.000000 0.000000 0.000000
-70.473050 81.331735 336.521669 0.244889 -0.341756 22.405981 -0.096139 0.409298 -22.404907 -0.000000 0.000000 0.000000 0.838659 2.415681 0.976064 0.000000 0.000000 0.000000 -0.755389 -6.226389 0.175589 -1.098071 9.608362 0.056311 4.693251 9.779482 -0.450643 2.899800 4.329336 0.987088 0.000000 0.000000 0.000000 0.000000 0.000000 0.000000 3.280607 -3.314998 -1.118121 -1.048166 -1.072091 0.810315 -9.887438 6.469624 0.338754 9.031053 1.391118 0.936876 0.000000 0.000000 0.000000 0.000000 0.000000 0.000000 -1.101625 2.754745 -22.631357 0.044565 -3.591742 -0.555453 1.759237 -5.662873 2.391425 0.000000 0.000000 0.000000 -2.713908 -0.687036 -22.901647 1.985828 2.027942 0.455243 -5.605934 10.444533 3.469576 0.000000 0.000000 0.000000
-69.770949 81.333167 336.010732 0.318766 -0.360124 22.918354 -0.153370 0.455827 -22.916742 -0.000000 0.000000 0.000000 0.905245 2.725985 1.097895 0.000000 0.000000 0.000000 -0.796466 -7.443763 0.211784 -1.650952 11.577179 0.168674 6.292239 13.426551 -0.687989 2.279706 3.561615 1.135617 0.000000 0.000000 0.000000 0.000000 0.000000 0.000000 4.068561 -4.104480 -1.356513 -1.473926 -1.023451 1.050638 -12.157605 8.517311 0.731415 10.677007 0.971234 1.215726 0.000000 0.000000 0.000000 0.000000 0.000000 0.000000 -1.459430 3.411428 -23.205995 0.386286 -4.041776 -0.543720 1.773088 -5.609303 2.575643 0.000000 0.000000 0.000000 -3.475752 -0.685749 -23.487499 2.523808 1.260584 0.381050 -6.414889 11.847229 4.414398 0.000000 0.000000 0.000000
-69.107224 81.353514 335.488503 0.388949 -0.331158 23.104150 -0.227814 0.457217 -23.102117 -0.000000 0.000000 0.000000 0.871795 2.795380 1.124236 0.000000 0.000000 0.000000 -0.731143 -8.220345 0.244870 -2.334527 12.987621 0.315969 7.749528 16.312037 -0.909979 1.005046 2.335467 1.019659 0.000000 0.000000 0.000000 0.000000 0.000000 0.000000 4.711598 -4.736520 -1.540580 -1.963599 -0.744223 1.274311 -13.937068 10.515901 1.166087 11.683668 0.077219 1.475143 0.000000 0.000000 0.000000 0.000000 0.000000 0.000000 -1.834466 3.910611 -23.448723 0.869469 -4.116696 -0.427443 1.478133 -4.516870 2.450171 0.000000 0.000000 0.000000 -4.158269 -0.594107 -23.698827 3.026986 0.916698 0.326465 -6.656033 11.196157 4.935233 0.000000 0.000000 0.000000
-68.277672 81.401711 334.800639 0.532941 -0.244399 22.994356 -0.395135 0.433159 -22.991726 0.819187 -0.223933 0.069630 -0.089300 2.681019 0.920409 0.000000 0.000000 0.000000 -1.201457 -8.432801 0.236185 -3.841767 14.310056 0.623527 10.440751 18.385631 -1.085583 -2.451410 0.348437 0.086913 0.000000 0.000000 0.000000 0.000000 0.000000 0.000000 4.790973 -5.113415 -1.822682 -3.558338 0.040085 1.757842 -15.437504 13.839844 1.756049 12.049847 -2.043661 1.793603 0.000000 0.000000 0.000000 0.000000 0.000000 0.000000 -2.585630 4.590167 -23.436627 2.090738 -3.845017 -0.036276 -0.221312 -1.496174 2.365819 0.000000 0.000000 0.000000 -4.930802 -0.209011 -23.513179 3.585851 -0.089683 0.137700 -5.610710 6.801004 4.968948 0.000000 0.000000 0.000000
-67.557588 81.484674 334.138537 0.725662 -0.043337 22.563393 -0.653496 0.318451 -22.561302 0.936361 -0.043317 0.073724 -0.541176 1.974750 0.702540 0.000000 0.000000 0.000000 -1.028925 -8.510865 0.258393 -5.323041 14.796521 0.934974 12.786160 15.265953 -0.701521 -7.333300 1.560789 -1.527175 0.000000 0.000000 0.000000 0.000000 0.000000 0.000000 5.138526 -5.658568 -1.917933 -4.422762 0.848416 2.025999 -15.419519 15.902707 2.176803 10.631984 -3.811279 1.654498 0.000000 0.000000 0.000000 0.000000 0.000000 0.000000 -3.340083 4.813261 -23.083298 3.149159 -3.032487 0.385194 -1.303413 2.695052 1.495358 0.000000 0.000000 0.000000 -5.881783 0.013793 -23.032308 4.245386 -0.896724 -0.018969 -3.683055 0.463080 4.483853 0.000000 0.000000 0.000000
-67.106046 81.563023 333.617495 0.752184 0.130273 21.655266 -0.747169 0.156497 -21.655100 0.942307 0.232317 0.066227 -0.960893 1.027601 0.428135 0.000000 0.000000 0.000000 -0.824884 -8.391008 0.270122 -5.700744 14.212675 0.951213 12.558095 12.801270 -0.452815 -9.162931 1.322964 -1.976780 0.000000 0.000000 0.000000 0.000000 0.000000 0.000000 5.084698 -5.965487 -1.887322 -4.197026 1.405103 1.946101 -15.221597 17.848806 2.727475 9.526192 -7.380043 1.291918 0.000000 0.000000 0.000000 0.000000 0.000000 0.000000 -3.687647 4.563031 -22.212047 3.801060 -1.818130 0.743764 -1.987898 5.810897 0.546384 0.000000 0.000000 0.000000 -6.338201 0.119976 -22.061206 4.645389 -1.648387 -0.160864 -0.864816 -9.422641 3.863475 0.000000 0.000000 0.000000
-66.947245 81.607489 333.372656 0.567094 0.232510 20.675992 -0.612663 -0.017295 -20.677236 0.774592 0.466684 0.047153 -0.775002 -0.466004 -0.053460 0.000000 0.000000 0.000000 -0.658007 -7.867400 0.255898 -5.334691 12.848378 0.802953 8.926407 12.663336 -0.580127 -6.224528 -0.025600 -1.203650 0.000000 0.000000 0.000000 0.000000 0.000000 0.000000 4.982621 -5.989164 -1.787237 -4.035175 2.142511 1.836996 -16.208468 18.860943 3.023777 8.049554 -7.416344 1.098561 0.000000 0.000000 0.000000 0.000000 0.000000 0.000000 -3.419494 4.116384 -21.209322 4.027549 -0.649792 0.992525 -2.981331 7.574454 0.107478 0.000000 0.000000 0.000000 -6.238434 0.142767 -21.014626 4.777420 -2.288101 -0.272482 -0.770651 -11.155134 4.230674 0.000000 0.000000 0.000000
-66.894647 81.618959 333.262524 0.318540 0.348434 19.935454 -0.418258 -0.218939 -19.937222 0.553424 0.726341 0.024304 -0.553777 -0.726073 -0.031320 0.000000 0.000000 0.000000 -0.327694 -7.440919 0.262708 -5.614433 12.894230 0.835085 6.447413 11.251059 -0.563100 -3.702606 0.560699 -0.557746 0.000000 0.000000 0.000000 0.000000 0.000000 0.000000 4.774265 -5.988072 -1.658856 -4.244424 3.189699 1.843482 -18.312095 19.711148 3.198323 9.160665 -9.298124 1.425575 0.000000 0.000000 0.000000 0.000000 0.000000 0.000000 -2.920640 3.518766 -20.420650 3.851621 0.420425 1.101726 -2.407056 9.019942 -1.115161 0.000000 0.000000 0.000000 -6.145343 -0.122619 -20.302346 4.775990 -2.377941 -0.298274 -2.010752 -7.198313 4.742605 0.000000 0.000000 0.000000
-67.015958 81.568450 333.357282 -0.042502 0.379923 19.336352 -0.085694 -0.372565 -19.336490 0.253382 0.889558 -0.000767 -0.253401 -0.889553 -0.003167 0.000000 0.000000 0.000000 -0.197228 -7.211955 0.255713 -5.553431 13.633209 0.882167 2.506065 10.020266 -0.749242 -1.118298 3.063541 0.079128 0.000000 0.000000 0.000000 0.000000 0.000000 0.000000 4.539936 -5.949766 -1.537606 -4.944743 4.908604 2.032875 -21.579183 19.972402 3.043642 12.260389 -9.284971 2.491940 0.000000 0.000000 0.000000 0.000000 0.000000 0.000000 -2.007025 3.048066 -19.719079 3.186680 0.970058 1.025243 -0.506583 8.732968 -2.604218 0.000000 0.000000 0.000000 -5.740653 -0.538165 -19.779933 4.558513 -1.955294 -0.234603 -0.627942 -12.296749 4.459831 0.000000 0.000000 0.000000
-67.156392 81.511427 333.437175 -0.362005 0.431331 18.928964 0.319258 0.359050 -18.939671 0.151616 0.171535 -0.009220 -0.842048 -1.087560 -0.048726 0.000000 0.000000 0.000000 -0.519461 -6.858772 0.195231 -5.785941 17.067636 1.216133 -0.573090 8.916536 -1.185197 1.870519 6.781428 1.081380 0.000000 0.000000 0.000000 0.000000 0.000000 0.000000 4.358915 -5.943203 -1.432168 -6.861749 6.464342 2.671837 -26.679918 25.571865 4.818446 16.518553 -12.471965 3.951172 0.000000 0.000000 0.000000 0.000000 0.000000 0.000000 -1.229389 2.732922 -19.221834 2.435729 0.751445 0.817247 1.638182 8.975292 -3.915785 0.000000 0.000000 0.000000 -5.396553 -1.221572 -19.540624 4.132127 -1.093330 -0.096599 -0.604045 -11.435112 4.351345 0.000000 0.000000 0.000000
-67.332756 81.447754 333.646855 -0.638375 0.421672 18.883212 0.366725 0.382192 -18.900263 0.148738 0.193552 -0.020006 -0.641285 -1.011034 0.020994 0.000000 0.000000 0.000000 -1.177622 -6.570343 0.106530 -6.648915 22.478143 1.975757 -2.923663 11.623194 -1.792945 5.460118 6.567291 2.825295 0.000000 0.000000 0.000000 0.000000 0.000000 0.000000 4.530069 -6.024029 -1.407254 -10.067334 9.239131 3.827360 -32.438467 26.557464 4.667617 20.986456 -9.971350 6.566561 0.000000 0.000000 0.000000 0.000000 0.000000 0.000000 -0.484539 2.634230 -19.087333 1.867380 0.632445 0.681716 3.452003 6.090410 -4.583764 0.000000 0.000000 0.000000 -4.899943 -1.704856 -19.609195 3.496353 -0.216939 0.029656 -1.646082 -5.836598 4.367168 0.000000 0.000000 0.000000
